<svg xmlns="http://www.w3.org/2000/svg" viewBox="0 0 96 96">
    <defs>
        <linearGradient id="wood" x1="0" y1="0" x2="1" y2="1">
            <stop offset="0" stop-color="#e3c98c"/>
            <stop offset="1" stop-color="#bc8f51"/>
        </linearGradient>
    </defs>
    <rect x="1.5" y="1.5" width="93" height="93" rx="16" fill="url(#wood)"/>
    <g stroke="rgba(63, 42, 19, 0.5)" stroke-width="1">
        <path d="M16 16h64M16 32h64M16 48h64M16 64h64M16 80h64"/>
        <path d="M16 16v64M32 16v64M48 16v64M64 16v64M80 16v64"/>
    </g>
    <g fill="#26211e">
        <circle cx="32" cy="64" r="6.8"/>
        <circle cx="64" cy="32" r="6.8"/>
    </g>
    <g fill="#f8f5ef" stroke="rgba(47, 36, 24, 0.4)" stroke-width="1">
        <circle cx="48" cy="48" r="6.8"/>
    </g>
    <circle cx="69" cy="69" r="18.5" fill="#26211e"/>
    <g stroke="#f8f5ef" fill="none" stroke-width="2.4" stroke-linejoin="round">
        <path d="M58 69 Q69 58 80 69 Q69 80 58 69 Z"/>
    </g>
    <circle cx="69" cy="69" r="4.6" fill="#f8f5ef"/>
    <rect x="9" y="9" width="32" height="16" rx="8" fill="#26211e"/>
    <text x="25" y="17.6" text-anchor="middle" dominant-baseline="central" fill="#f8f5ef" font-family="'Segoe UI', Arial, sans-serif" font-size="10.5" font-weight="700">.lib</text>
</svg>
